HIERARCHY
ROOT hips
{
  OFFSET 0 10.680822821525009 1.3929502295107734
  CHANNELS 6 Xposition Yposition Zposition Yrotation Xrotation Zrotation
  JOINT spine
  {
    OFFSET -7.042017322922631e-31 0.6058489940359625 0
    CHANNELS 3 Yrotation Xrotation Zrotation
    JOINT chest
    {
      OFFSET 0 1.2699794144455032 0
      CHANNELS 3 Yrotation Xrotation Zrotation
      JOINT upperChest
      {
        OFFSET 0 1.217799211677689 0
        CHANNELS 3 Yrotation Xrotation Zrotation
        JOINT neck
        {
          OFFSET 0 1.5248826104153006 0
          CHANNELS 3 Yrotation Xrotation Zrotation
          JOINT head
          {
            OFFSET 0 0.8197772727844447 0
            CHANNELS 3 Yrotation Xrotation Zrotation
            JOINT leftEye
            {
              OFFSET 0.2793952361220866 0.6769952096623495 0.1830357412467788
              CHANNELS 3 Yrotation Xrotation Zrotation
              End Site
              {
                OFFSET 0.2793952361220866 0.6769952096623495 0.1830357412467788
              }
            }
            JOINT rightEye
            {
              OFFSET -0.27939522230689573 0.676995205357064 0.18303631459760622
              CHANNELS 3 Yrotation Xrotation Zrotation
              End Site
              {
                OFFSET -0.27939522230689573 0.676995205357064 0.18303631459760622
              }
            }
          }
        }
        JOINT leftShoulder
        {
          OFFSET 0.41486978509200423 1.1670505408695453 0
          CHANNELS 3 Yrotation Xrotation Zrotation
          JOINT leftUpperArm
          {
            OFFSET 0.9737926108153417 0 0
            CHANNELS 3 Yrotation Xrotation Zrotation
            JOINT leftLowerArm
            {
              OFFSET 2.5269332222665284 0 0
              CHANNELS 3 Yrotation Xrotation Zrotation
              JOINT leftHand
              {
                OFFSET 2.4263782738425914 0 0
                CHANNELS 3 Yrotation Xrotation Zrotation
                JOINT leftIndexProximal
                {
                  OFFSET 0.724320348022514 0.08170607082582437 0.20360061616140124
                  CHANNELS 3 Yrotation Xrotation Zrotation
                  JOINT leftIndexIntermediate
                  {
                    OFFSET 0.36548960630744587 -0.010566596513783999 -0.01414783573280308
                    CHANNELS 3 Yrotation Xrotation Zrotation
                    JOINT leftIndexDistal
                    {
                      OFFSET 0.22502819650693362 -0.007863819831430696 -0.007567681939621526
                      CHANNELS 3 Yrotation Xrotation Zrotation
                      End Site
                      {
                        OFFSET 0.22502819650693362 -0.007863819831430696 -0.007567681939621526
                      }
                    }
                  }
                }
                JOINT leftLittleProximal
                {
                  OFFSET 0.6720322998298205 0.08170601055037707 -0.3230036039466837
                  CHANNELS 3 Yrotation Xrotation Zrotation
                  JOINT leftLittleIntermediate
                  {
                    OFFSET 0.34583592281688713 5.476543019078406e-8 1.3869203337180114e-7
                    CHANNELS 3 Yrotation Xrotation Zrotation
                    JOINT leftLittleDistal
                    {
                      OFFSET 0.19925728062053938 0.003098047439490381 0.0038303983709246925
                      CHANNELS 3 Yrotation Xrotation Zrotation
                      End Site
                      {
                        OFFSET 0.19925728062053938 0.003098047439490381 0.0038303983709246925
                      }
                    }
                  }
                }
                JOINT leftMiddleProximal
                {
                  OFFSET 0.7300436596551069 0.0817073395107144 0.022661722987926763
                  CHANNELS 3 Yrotation Xrotation Zrotation
                  JOINT leftMiddleIntermediate
                  {
                    OFFSET 0.40758254347686607 -0.0000012383587111308714 2.408460318820138e-7
                    CHANNELS 3 Yrotation Xrotation Zrotation
                    JOINT leftMiddleDistal
                    {
                      OFFSET 0.2514490105498507 0.0000013869132886590307 9.738618134136345e-8
                      CHANNELS 3 Yrotation Xrotation Zrotation
                      End Site
                      {
                        OFFSET 0.2514490105498507 0.0000013869132886590307 9.738618134136345e-8
                      }
                    }
                  }
                }
                JOINT leftRingProximal
                {
                  OFFSET 0.7217261161191838 0.08170601902187746 -0.15043395722184966
                  CHANNELS 3 Yrotation Xrotation Zrotation
                  JOINT leftRingIntermediate
                  {
                    OFFSET 0.37808807487521556 0.0000013754022405443322 2.2046919317952884e-7
                    CHANNELS 3 Yrotation Xrotation Zrotation
                    JOINT leftRingDistal
                    {
                      OFFSET 0.21812105442344254 -0.002713483731960231 -0.004991354517454624
                      CHANNELS 3 Yrotation Xrotation Zrotation
                      End Site
                      {
                        OFFSET 0.21812105442344254 -0.002713483731960231 -0.004991354517454624
                      }
                    }
                  }
                }
                JOINT leftThumbProximal
                {
                  OFFSET 0.10793587079521427 -0.1652791240518252 -0.07775251827190094
                  CHANNELS 3 Yrotation Xrotation Zrotation
                  JOINT leftThumbIntermediate
                  {
                    OFFSET 0.40355819082296684 -0.017484006740276614 0.3177776014416309
                    CHANNELS 3 Yrotation Xrotation Zrotation
                    JOINT leftThumbDistal
                    {
                      OFFSET 0.2318764658022603 -0.018510186824293617 0.21396001800186287
                      CHANNELS 3 Yrotation Xrotation Zrotation
                      End Site
                      {
                        OFFSET 0.2318764658022603 -0.018510186824293617 0.21396001800186287
                      }
                    }
                  }
                }
              }
            }
          }
        }
        JOINT rightShoulder
        {
          OFFSET -0.4148697850920044 1.1670505408695453 0
          CHANNELS 3 Yrotation Xrotation Zrotation
          JOINT rightUpperArm
          {
            OFFSET -0.9737926108153414 0 0
            CHANNELS 3 Yrotation Xrotation Zrotation
            JOINT rightLowerArm
            {
              OFFSET -2.5269332222665293 0 0
              CHANNELS 3 Yrotation Xrotation Zrotation
              JOINT rightHand
              {
                OFFSET -2.42637827384259 0 0
                CHANNELS 3 Yrotation Xrotation Zrotation
                JOINT rightIndexProximal
                {
                  OFFSET -0.724320348022514 0.08170607082582437 0.20360061616140124
                  CHANNELS 3 Yrotation Xrotation Zrotation
                  JOINT rightIndexIntermediate
                  {
                    OFFSET -0.36548960630744587 -0.010566596513783999 -0.01414783573280308
                    CHANNELS 3 Yrotation Xrotation Zrotation
                    JOINT rightIndexDistal
                    {
                      OFFSET -0.22502819650693362 -0.007863819831430696 -0.007567681939621526
                      CHANNELS 3 Yrotation Xrotation Zrotation
                      End Site
                      {
                        OFFSET -0.22502819650693362 -0.007863819831430696 -0.007567681939621526
                      }
                    }
                  }
                }
                JOINT rightLittleProximal
                {
                  OFFSET -0.6720322998298205 0.08170601055037707 -0.3230036039466837
                  CHANNELS 3 Yrotation Xrotation Zrotation
                  JOINT rightLittleIntermediate
                  {
                    OFFSET -0.34583592281688713 5.476543019078406e-8 1.3869203337180114e-7
                    CHANNELS 3 Yrotation Xrotation Zrotation
                    JOINT rightLittleDistal
                    {
                      OFFSET -0.19925728062053938 0.003098047439490381 0.0038303983709246925
                      CHANNELS 3 Yrotation Xrotation Zrotation
                      End Site
                      {
                        OFFSET -0.19925728062053938 0.003098047439490381 0.0038303983709246925
                      }
                    }
                  }
                }
                JOINT rightMiddleProximal
                {
                  OFFSET -0.7300436596551069 0.0817073395107144 0.022661722987926763
                  CHANNELS 3 Yrotation Xrotation Zrotation
                  JOINT rightMiddleIntermediate
                  {
                    OFFSET -0.40758254347686607 -0.0000012383587111308714 2.408460318820138e-7
                    CHANNELS 3 Yrotation Xrotation Zrotation
                    JOINT rightMiddleDistal
                    {
                      OFFSET -0.2514490105498507 0.0000013869132886590307 9.738618134136345e-8
                      CHANNELS 3 Yrotation Xrotation Zrotation
                      End Site
                      {
                        OFFSET -0.2514490105498507 0.0000013869132886590307 9.738618134136345e-8
                      }
                    }
                  }
                }
                JOINT rightRingProximal
                {
                  OFFSET -0.7217261161191838 0.08170601902187746 -0.15043395722184966
                  CHANNELS 3 Yrotation Xrotation Zrotation
                  JOINT rightRingIntermediate
                  {
                    OFFSET -0.37808807487521556 0.0000013754022405443322 2.2046919317952884e-7
                    CHANNELS 3 Yrotation Xrotation Zrotation
                    JOINT rightRingDistal
                    {
                      OFFSET -0.21812105442344254 -0.002713483731960231 -0.004991354517454624
                      CHANNELS 3 Yrotation Xrotation Zrotation
                      End Site
                      {
                        OFFSET -0.21812105442344254 -0.002713483731960231 -0.004991354517454624
                      }
                    }
                  }
                }
                JOINT rightThumbProximal
                {
                  OFFSET -0.10793587079521427 -0.1652791240518252 -0.07775251827190094
                  CHANNELS 3 Yrotation Xrotation Zrotation
                  JOINT rightThumbIntermediate
                  {
                    OFFSET -0.40355819082296684 -0.017484006740276614 0.3177776014416309
                    CHANNELS 3 Yrotation Xrotation Zrotation
                    JOINT rightThumbDistal
                    {
                      OFFSET -0.2318764658022603 -0.018510186824293617 0.21396001800186287
                      CHANNELS 3 Yrotation Xrotation Zrotation
                      End Site
                      {
                        OFFSET -0.2318764658022603 -0.018510186824293617 0.21396001800186287
                      }
                    }
                  }
                }
              }
            }
          }
        }
      }
    }
  }
  JOINT leftUpperLeg
  {
    OFFSET 0.8486251390888677 -0.4421577294694363 0
    CHANNELS 3 Yrotation Xrotation Zrotation
    JOINT leftLowerLeg
    {
      OFFSET 0 -4.10147812638609 0
      CHANNELS 3 Yrotation Xrotation Zrotation
      JOINT leftFoot
      {
        OFFSET -0.0002543926476658853 -4.77292286812444 0.007402811231737388
        CHANNELS 3 Yrotation Xrotation Zrotation
        JOINT leftToes
        {
          OFFSET 0 -0.7027875951174846 1.2062924140498823
          CHANNELS 3 Yrotation Xrotation Zrotation
          End Site
          {
            OFFSET 0 -0.7027875951174846 1.2062924140498823
          }
        }
      }
    }
  }
  JOINT rightUpperLeg
  {
    OFFSET -0.8486251390888677 -0.4421577294694363 0
    CHANNELS 3 Yrotation Xrotation Zrotation
    JOINT rightLowerLeg
    {
      OFFSET 0 -4.10147812638609 0
      CHANNELS 3 Yrotation Xrotation Zrotation
      JOINT rightFoot
      {
        OFFSET 0.0002543926476658853 -4.77292286812444 0.007402811231737388
        CHANNELS 3 Yrotation Xrotation Zrotation
        JOINT rightToes
        {
          OFFSET 0 -0.7027875951174846 1.2062924140498823
          CHANNELS 3 Yrotation Xrotation Zrotation
          End Site
          {
            OFFSET 0 -0.7027875951174846 1.2062924140498823
          }
        }
      }
    }
  }
}
MOTION
Frames: 4
Frame Time: 0.03333333333333333
-5.711821556091309 -8.76112911310521 4.740102767944336 47.79928416812122 7.574297427751509 -0.350095866479306 15.250116890807494 33.17847996101587 -2.509983588512055 4.889070547589014 15.39684972241562 -3.087414172933566 0 0 0 -1.0787807850030868 -3.7073360906243784 2.0917079814631574 -6.796964768359579 -7.323389322845141 6.158039387004649 0 0 0 0 0 0 1.2731314263419264 0.7085954947409467 -10.1286262883637 -15.334430170521522 -19.168896855408775 -51.73994577041279 -22.276652071457733 -3.1480084254945937 0.9110592863393249 -13.053104669765007 -20.70797421292418 60.15703140547374 -5.70491330609288 0.5429700129839349 9.345416485023886 -3.3719818355214505e-7 -0.0000033798971929016797 -0.000010827006290258926 -1.3081662277873316 0.16979893807631788 14.788177852880494 12.193020807938701 -0.6319950651064179 13.079380507552031 0.000010985067135708931 -0.0000026165785217909073 -0.00006070368925849368 -0.931751728323317 0.08543328510654917 10.475191870542934 -0.022198750198164103 0.29857175835788036 13.055319824268633 0.4526032051630615 0.020016178262296132 -5.066876703761965 -1.072276017260009 0.11345177074732672 12.077155417765224 4.045335829666303 -0.11383343499836639 15.240694815642964 0.4322729929613086 0.018252947153878634 -4.8386833049830615 -1.074160821900937 0.11385848796825458 12.09878617405714 75.93604333123521 -53.78486185236574 -82.39459831654689 -3.1052726506739026 11.184069860238932 25.49940265420614 -0.05710585970604294 3.1281773298455215 11.709032522785758 11.012260106953033 0.7904092780933335 4.867752440381251 53.78913412663253 -0.15287962524773463 43.782693648109195 42.473148474851484 -5.498978392686636 -2.7115776245877004 -25.334153994763167 12.18296551105804 -95.94507430941643 5.737318773193993 1.3839555513440431 -6.468154670114392 -0.000009818964444626156 0.0000056825628045188795 0.00004290096627200877 0.8930897930455632 0.10299230453668756 -13.157507973984744 -5.642167448500638 -0.3141095135949418 -7.915635553540948 -0.05814272358342571 0.00043080941902961145 0.8488774513351821 0.31813461784326424 0.01291887186890486 -4.651003087692335 2.2961075243150915 0.22077839380493494 -9.909753846638848 -0.515299705931537 0.033983411439781244 7.547130982752959 0.8396200803219164 0.09089263376081211 -12.35704912158711 -1.2318979796900267 0.1279677292355518 -10.58064118620257 -0.49792126162695066 0.03172372569057597 7.291190258103254 0.8136247384589687 0.08529749492544039 -11.968993658142058 -64.83319650909249 -58.08559527175831 81.90951952846243 6.01257993912701 2.40294357839104 -32.43495022743614 -13.820351818082136 6.29441853684846 -12.5313997845513 -71.60892335196175 -73.41530991173714 112.0273304426162 -2.4401838766475827 3.944921179504533 6.247424565092593 29.9531023415383 5.165346235827673 0.8179162130493087 0.000005138642935741986 -6.287538379151609 0.0000020827197336935238 28.032890275017667 -9.46026455784649 -87.75363111651247 170.32548989035368 43.52988746716196 173.90939371112532 -2.5631919952666595 -7.676479956618304 7.0784638021736574 -0.025856670279199395 -8.312062574744893 0.9667530473917898
-5.730451583862305 -8.921529742148788 4.672671794891357 47.813200629665715 6.500289517021419 -0.4888813114758014 16.644072027215444 33.480450689681135 -1.3810056101556767 5.294926601392979 15.85332290200156 -2.703789543223452 0 0 0 -0.9974472513604915 -3.1169779747340467 1.9156850190156587 -6.664481419753698 -8.612640705798439 5.480508796797113 0 0 0 0 0 0 2.0595871861014956 0.6287317447322968 -8.13306565770955 -15.004106420751862 -19.515659724293013 -54.937140261232756 -24.350245863626913 -3.4175208861984356 1.056515350401064 -9.85005749895908 -17.793476949910698 63.5666666733592 -5.365340748480873 0.7989995475266525 6.998784211454312 0.000013684853853298789 -5.612381855361819e-7 -0.000012787748126511485 -1.2298246758863471 0.14976564843497456 13.884604200618378 7.26172325717944 -0.22384625239324052 12.531332967422562 0.00001723798675059092 0.0000022957524597393138 -0.00007083731386551935 -0.7196840598122136 0.05080015892766044 8.072935293044905 -1.4486112743454482 0.3487010788892868 11.865376898705755 0.6439131098400416 0.040600688877024775 -7.218144444686246 -1.1109475617710272 0.12187861445462746 12.519346630486677 2.0155169728652713 0.129887377438188 13.567038412616375 0.6213236682855726 0.037791769588239196 -6.9634951702307175 -1.0634377521614582 0.11156985656943037 11.976038649600866 69.94931799451025 -54.968433498414505 -82.63734469032279 -6.785643755192416 5.4180381697391224 30.01039010958698 2.8978156718891683 3.3656029042084774 10.841385570381796 11.01624812146731 0.780490911450348 4.858704950329878 49.89313053672284 4.615880544507557 43.32652099934433 52.959702293714216 -6.427913042758436 -3.9383504133122953 -30.632174226676852 11.676024939291505 -96.25273202872617 5.73732557115135 1.3839555513440431 -6.468156791580836 -0.000002630758197893992 1.2813681300717978e-7 0.00004575724075814604 0.8930710656313623 0.1030010490605839 -13.157524547232113 -5.642178404888946 -0.3141155968235887 -7.91564448037266 -0.05811932486096698 0.00043593826202200796 0.8488737698404875 0.31812333219658284 0.012919377963256859 -4.651006917022476 2.296109870325028 0.2207708565285094 -9.909757210805305 -0.515290101365033 0.0339858693744999 7.547130136375286 0.8395945231861411 0.09088625713086855 -12.357057461539979 -1.2318985131765667 0.12796810276245366 -10.58064454324023 -0.4978921276970117 0.031720514033750376 7.2911855903358385 0.8136248451700315 0.08529564063374766 -11.968991152501562 -64.83314804509351 -58.08561465178757 81.90952548539256 6.012604517153 2.4029217880024536 -32.43494734255645 -13.820373490937108 6.294414671565753 -12.53141059190372 -71.46891825171808 -73.26950937412596 112.07542427317749 -1.678290409964739 3.8074654763786997 6.744602662438572 29.961094429325808 2.897543123657591 0.23971458417740335 0.000017861122187337753 -4.742967480066112 -0.000034023960962813476 28.985985468991807 -6.958920907831492 -89.75017478728111 171.15576435386467 43.444064200640206 174.01605946391373 1.0146318547319542 -6.650487735015813 6.918190919134127 -0.027425916491107396 -8.3816824953065 0.98101131914627
-5.737179756164551 -9.000319572356613 4.618401527404785 48.053764022160394 5.335009226669855 -0.5641188241533265 17.05620794677738 33.47265516215962 -0.6185277801377617 5.359828702706449 16.234532771037166 -2.6183964439113026 0 0 0 -1.0058912695658175 -3.037571160633424 2.023893327266419 -6.6081152488072865 -9.677167277014748 5.6052269729756485 0 0 0 0 0 0 2.765694942716177 0.5388995724398149 -6.343218569503535 -15.948585831339448 -22.133649941948427 -57.2537924502716 -20.52198649109678 -2.9158314322564705 0.7956614314844289 -9.64547503449548 -15.928548153662216 66.77638628553319 -5.715694017285514 1.101197274587846 4.274366255955386 0.0008909777291107649 0.0000034533874455937006 -0.010042971814773458 -1.1400318488826555 0.1284307825358406 12.85282205185493 5.16192720297462 -0.005490320673938739 11.02567047147299 -0.00001739993224919554 -0.0000029625221111618293 -0.00008274176058498407 -0.4987072670568243 0.02433180426510856 5.584701055172757 -2.5178324481570544 0.27391822953862915 10.059937381981088 0.7969861451501845 0.062344538303499175 -8.946645856028454 -1.120302811340858 0.1239605062614709 12.626353479422969 0.9577220074141984 0.19186963050327388 11.682802612810043 0.7718629209744748 0.05844351094372662 -8.66225296230656 -1.033611516483611 0.10532932032221785 11.635189299542963 62.11644680215963 -55.11395673787674 -78.59444888166311 -10.30252521959013 0.9560674395327888 31.640980986293002 4.48555225696552 3.0628158725094736 10.1769215130747 11.027614380716168 0.7707408301868498 4.846496690654021 48.36863068838053 6.386894249318137 42.929222590880975 56.60003115878004 -6.695582196421735 -4.400812975200535 -32.301879224150504 11.389317418058807 -95.63892342564993 5.737321747300357 1.3839578999066655 -6.468157640167409 -0.0000055124009917278095 3.855618252606666e-7 0.00003783835535400379 0.8930710122769056 0.10299213111363548 -13.15751296215488 -5.642176705588632 -0.31411148797616895 -7.915634707889438 -0.05809883430354136 0.0004275535211296516 0.8488714755756742 0.3181147145514644 0.012920249245955116 -4.65100861894697 2.2960945910748274 0.22077440505156945 -9.90974459518074 -0.5152882871691346 0.03398603946224841 7.547127597242248 0.839612663950609 0.09089444803209332 -12.35705245756832 -1.2319103565776997 0.12797246502305812 -10.58064957879658 -0.4979142716181426 0.031723632309069105 7.291197033064374 0.8136363166092676 0.08529647439799798 -11.968994493355545 -64.833255116793 -58.085588811750895 81.9095552533513 6.01259141175385 2.402908329233206 -32.43496254861439 -13.82032929779509 6.294460196008357 -12.531422983229897 -69.61997356135517 -73.1007968503752 110.23415752297063 -0.5318250657778965 3.64645623751456 6.958756637652452 29.960434943752123 0.7111746760820988 0.25068693330402875 -0.00004133316771086014 -3.394772027838813 0.000021793183734265672 29.341423242298017 -5.507186410019974 -90.3765795399369 171.7408699275076 43.56354779157229 173.90974535975946 2.6720824313030302 -5.823724261343997 6.939129780005511 -0.027032352696273784 -8.395985112778519 0.96212357456263
-5.738480091094971 -9.011714907554062 4.5978102684021 48.13997649109949 4.724318926939375 -0.5781534508686013 17.111549971194034 33.34738410078478 -0.4238518837687948 5.350689155200882 16.385598437262487 -2.6831485667304733 0 0 0 -1.0800147507564575 -3.265174673245852 2.1587415543629733 -7.0829398303948965 -10.390858199295621 6.082817105805464 0 0 0 0 0 0 2.8119526724778 0.4479333312429041 -6.100062847451967 -16.76769640059271 -24.067589101593867 -57.364429194653624 -16.716873748280058 -2.4005261291656073 0.5701026587206283 -10.516046780879128 -15.44700128191128 67.97122321829082 -6.173690517383283 1.181785920929007 3.5729045378767728 0.004932450028527246 2.721271135463332e-7 -0.055228958879152266 -1.1036706342067597 0.12027127525507127 12.43617029855928 5.6219585539682155 -0.04062146959939246 10.885805213771608 0.03603529601571551 0.00013010148468601973 -0.402643092578819 -0.3858573376369307 0.01455215507514876 4.317974161439237 -2.7068373676048205 0.2445944328132021 9.638316682929887 0.8564364503282844 0.07206073588677064 -9.619671729322214 -1.106923098323215 0.12098333739436003 12.473331310244184 1.036138545597717 0.18197664914032513 11.391202174693953 0.8205264334970487 0.066097316063868 -9.213100016497178 -1.0160044966654667 0.10174147745778836 11.434578555831182 58.69352548334614 -54.301704590200806 -75.14831162096252 -9.896832007077192 -0.06467987079510497 30.98717043295326 4.4856377702712145 2.663706121432212 10.040294772040202 11.026739698689632 0.7665662484498564 4.845847657369332 48.27212024191764 6.406667380717678 42.84995536625544 56.4632816139647 -6.686071268868822 -4.383111135032268 -32.0657424152706 11.314294586667119 -94.9605411561648 5.737318348321653 1.3839551243326575 -6.468162731686785 0.00000215168096600025 -7.378648955505186e-8 0.00004119366324610604 0.8930731998096284 0.10299361187969557 -13.15751706497708 -5.64215385409815 -0.3141115946994785 -7.915633016586404 -0.05813415250065731 0.00043243223512411355 0.8488567495968081 0.3181354982837844 0.012921079674249344 -4.650992450663948 2.2960930981594716 0.2207715902456834 -9.909753846638848 -0.5152873800711849 0.03398433524970942 7.547128443619931 0.8395870534595467 0.09088864503203975 -12.357057461539979 -1.231909289604629 0.1279719714339377 -10.58064202546199 -0.49791058985777215 0.031722588437224426 7.2911855903358385 0.8136222841045186 0.08529419988912315 -11.96899532856903 -64.83317099164043 -58.08560173176689 81.90955048818151 6.012619813988216 2.4029326831967035 -32.434942624407135 -13.820384307350206 6.294428844269154 -12.531432206609823 -67.88799020214559 -72.91149198259816 108.4764017322505 0.2741261567120603 3.5531690029888137 7.139302285773334 29.971583430959306 -0.23524088698008885 0.3825059906823339 0.0000031182071856295595 -2.816114854846162 3.88276911809118e-7 29.435095088934183 -5.129514847480834 -90.11572417701075 171.8503277848241 43.62866020187625 173.71013592917396 2.6787519392169674 -5.546150202650156 7.1067371484601765 -0.026869154008802697 -8.417146151883413 0.9524456750228153
